<svg width="56.533" height="48.533" xmlns="http://www.w3.org/2000/svg">

 <g>
  <title>background</title>
  <rect fill="none" id="canvas_background" height="50.533" width="58.533" y="-1" x="-1"/>
 </g>
 <g>
  <title>Layer 1</title>
  <g id="svg_1" transform="matrix(0.1260306319901606,0,0,0.11047717611347176,118.13401549834734,163.49948781112315) ">
   <g id="svg_2">
    <path id="svg_3" fill="#000000" class="active-path" d="m-531.132328,-1365.827487c-19.608,-33.592 -46.205,-60.189 -79.798,-79.796c-33.599,-19.606 -70.277,-29.407 -110.062,-29.407c-39.781,0 -76.47,9.801 -110.063,29.407c-33.595,19.604 -60.192,46.201 -79.8,79.796c-19.609,33.597 -29.41,70.286 -29.41,110.064c0,39.78 9.804,76.463 29.407,110.062c19.607,33.592 46.204,60.189 79.799,79.798c33.597,19.605 70.283,29.407 110.063,29.407s76.47,-9.802 110.065,-29.407c33.593,-19.602 60.189,-46.206 79.795,-79.798c19.603,-33.596 29.403,-70.284 29.403,-110.062c0.001,-39.782 -9.8,-76.472 -29.399,-110.064zm-55.391,188.005c-13.894,23.791 -32.736,42.633 -56.527,56.534c-23.791,13.894 -49.771,20.834 -77.945,20.834c-28.167,0 -54.149,-6.94 -77.943,-20.834c-23.791,-13.901 -42.633,-32.743 -56.527,-56.534c-13.897,-23.791 -20.843,-49.772 -20.843,-77.941c0,-28.171 6.949,-54.152 20.843,-77.943c13.891,-23.791 32.738,-42.637 56.527,-56.53c23.791,-13.895 49.772,-20.84 77.943,-20.84c28.173,0 54.154,6.945 77.945,20.84c23.791,13.894 42.634,32.739 56.527,56.53c13.895,23.791 20.838,49.772 20.838,77.943c0,28.169 -6.943,54.15 -20.838,77.941z"/>
   </g>
  </g>
 </g>
</svg>