<svg width="17.066" height="14.066" xmlns="http://www.w3.org/2000/svg">
 <g>
  <title>background</title>
  <rect x="-1" y="-1" width="19.066" height="16.066" id="canvas_background" fill="none"/>
 </g>

 <g>
  <title>Layer 1</title>
  <g transform="matrix(0,-0.27985317350747446,-0.28467940138944287,0,26.106391328599095,23.589179092259766) " id="svg_1">
   <path d="m84.002665,58.309856c-0.432,-0.72 -1.155,-1.116 -2.039,-1.116c-0.004,0 -0.008,0 -0.012,0c-1.667,0.006 -3.673,0.667 -5.235,1.724c-1.441,0.975 -3.53,2.782 -5.293,5.863c-0.331,0.578 -0.874,0.97 -1.455,1.063c-0.002,-0.134 -0.001,-0.287 -0.001,-0.432c0,-0.309 0.001,-0.677 -0.012,-1.083l0,-22.135c0,-2.206 -1.794,-4 -4,-4s-4,1.794 -4,4l0,15.5c0,0.275 -0.225,0.5 -0.5,0.5s-0.5,-0.225 -0.5,-0.5l0,-22.5c0,-2.206 -1.794,-4 -4,-4s-4,1.794 -4,4l0,22.5c0,0.275 -0.225,0.5 -0.5,0.5s-0.5,-0.225 -0.5,-0.5l0,-18c0,-1.93 -1.57,-3.5 -3.5,-3.5s-3.5,1.57 -3.5,3.5l0,20c0,0.275 -0.225,0.5 -0.5,0.5s-0.5,-0.225 -0.5,-0.5l0,-12.5c0,-1.93 -1.57,-3.5 -3.51,-3.5c-1.93,0 -3.5,1.57 -3.5,3.5l0.002,27.197c0.968,13.983 9.545,15.869 17.808,15.869c6.846,0 12.995,-3.396 16.027,-8.824c0.39,-0.63 1.445,-2.289 2.696,-4.254c3.128,-4.914 5.748,-9.041 6.135,-9.775c0.863,-1.634 1.826,-2.911 2.784,-3.693c0.867,-0.708 1.397,-1.611 1.828,-2.404c0.223,-0.413 0.417,-1.93 -0.223,-3zm-1.588,2.143c-0.4,0.729 -0.777,1.3 -1.282,1.712c-1.18,0.964 -2.285,2.413 -3.287,4.309c-0.381,0.723 -3.794,6.086 -6.053,9.635c-1.258,1.976 -2.318,3.642 -2.733,4.314c-2.701,4.834 -8.182,7.838 -14.304,7.838c-10.542,0 -15.123,-4.059 -15.81,-13.938l0,-27.129c0,-0.827 0.673,-1.5 1.51,-1.5c0.827,0 1.5,0.673 1.5,1.5l0,12.5c0,1.379 1.121,2.5 2.5,2.5s2.5,-1.121 2.5,-2.5l0,-20c0,-0.827 0.673,-1.5 1.5,-1.5s1.5,0.673 1.5,1.5l0,18c0,1.379 1.121,2.5 2.5,2.5s2.5,-1.121 2.5,-2.5l0,-22.5c0,-1.103 0.897,-2 2,-2s2,0.897 2,2l0,22.5c0,1.379 1.121,2.5 2.5,2.5s2.5,-1.121 2.5,-2.5l0,-15.5c0,-1.103 0.897,-2 2,-2s2,0.897 2,2l0,22.166c0.013,0.411 0.012,0.758 0.012,1.05c-0.002,0.895 -0.003,1.541 0.49,2.024c0.413,0.403 0.948,0.428 1.326,0.432c1.361,-0.031 2.655,-0.833 3.376,-2.092c1.571,-2.748 3.41,-4.344 4.677,-5.199c1.232,-0.834 2.851,-1.376 4.123,-1.381c0.001,0 0.003,0 0.004,0c0.214,0 0.263,0.063 0.292,0.1c0.197,0.25 0.206,0.879 0.159,1.159z" class="active-path" fill="#000000" id="svg_2"/>
  </g>
 </g>
</svg>