<svg width="20" height="13" xmlns="http://www.w3.org/2000/svg">
 <g>
  <title>background</title>
  <rect x="-1" y="-1" width="22" height="15" id="canvas_background" fill="none"/>
 </g>

 <g>
  <title>Layer 1</title>
  <g transform="matrix(0.02960304769824241,0,0,0.026938551252271327,59.88323734863601,68.73066306056643) " id="svg_1">
   <g id="svg_2">
    <path d="m-1701.196571,-2269.288295l0.131,0c4.615,0 9.176,-1.339 12.866,-3.777l1.001,-0.643c0.218,-0.142 0.446,-0.271 0.675,-0.424l11.658,-9.645l278.259,-229.624c-0.576,-0.795 -1.557,-1.339 -2.602,-1.339l-605.523,0c-0.751,0 -1.448,0.272 -2.003,0.729l291.125,239.954c3.669,3.038 8.904,4.769 14.413,4.769zm-306.768,-212.915l0,340.37l208.55,-168.471l-208.55,-171.899zm403.668,173.042l208.332,167.415l0,-339.325l-208.332,171.91zm-66.237,54.644c-8.305,6.814 -19.168,10.57 -30.576,10.57c-11.451,0 -22.304,-3.734 -30.587,-10.516l-47.765,-39.394l-228.503,184.561l0,0.587c0,1.753 1.502,3.244 3.276,3.244l605.491,0c1.741,0 3.232,-1.491 3.232,-3.255l0,-0.544l-228.306,-183.438l-46.262,38.185z" class="active-path" fill="#000000" id="svg_3"/>
   </g>
  </g>
 </g>
</svg>